<?xml version="1.0" standalone="no"?><!DOCTYPE svg PUBLIC "-//W3C//DTD SVG 1.1//EN" "http://www.w3.org/Graphics/SVG/1.1/DTD/svg11.dtd"><svg t="1755099114189" class="icon" viewBox="0 0 1024 1024" version="1.1" xmlns="http://www.w3.org/2000/svg" p-id="13631" xmlns:xlink="http://www.w3.org/1999/xlink" width="200" height="200"><path d="M127.116 480.688l372.064-312.048 25.704 30.648-372.064 312.048z" fill="#D2A76A" p-id="13632"></path><path d="M140 496m-20 0a20 20 0 1 0 40 0 20 20 0 1 0-40 0Z" fill="#D2A76A" p-id="13633"></path><path d="M512 184l372 312" fill="#D2A76A" p-id="13634"></path><path d="M499.108 199.292l25.704-30.648 372.068 312.044-25.704 30.648z" fill="#D2A76A" p-id="13635"></path><path d="M884 496m-20 0a20 20 0 1 0 40 0 20 20 0 1 0-40 0Z" fill="#D2A76A" p-id="13636"></path><path d="M512 184m-20 0a20 20 0 1 0 40 0 20 20 0 1 0-40 0Z" fill="#D2A76A" p-id="13637"></path><path d="M750.8 380c1.6 1.6 3.2 0.8 3.2-1.6V305.2 204c0-2-1.6-4-4-4h-100c-2.4 0-4 2-4 4v84c0 2 1.2 5.2 3.2 6.4L750.8 380z" fill="#D2A76A" p-id="13638"></path><path d="M752.4 400.4c-5.2 0-10.4-2-14.4-5.6l-101.6-85.2c-6.4-5.2-10.4-13.6-10.4-22V204c0-13.2 10.8-24 24-24h100c13.2 0 24 10.8 24 24v174.4c0 8.8-4.8 16.8-12.4 20-3.2 1.6-6 2-9.2 2z m-86.4-118l68 56.8V220h-68v62.4zM776.8 509.2c1.6 1.6 3.2 4.4 3.2 6.8v304c0 2.4-1.6 4-4 4h-188c-2.4 0-4-1.6-4-4v-236c0-2.4-1.6-4-4-4h-144c-2.4 0-4 1.6-4 4v236c0 2.4-1.6 4-4 4H240c-2 0-4-1.6-4-4v-304c0-2.4 1.2-5.2 3.2-6.4l270-226.8c1.6-1.6 4.4-1.2 6 0l261.6 226.4z" fill="#D2A76A" p-id="13639"></path><path d="M776 844h-188c-13.2 0-24-10.8-24-24v-220h-112v220c0 13.2-10.8 24-24 24H240c-13.2 0-24-10.8-24-24v-304c0-8 4-16.8 10-22L496 267.2c9.2-7.6 22.8-7.6 32 0.4l262 226.8c6 5.2 10 13.6 10 21.6v304c0 13.2-10.8 24-24 24z m-172-40h156v-282.8l-248-214.8-256 215.2V804h156v-220c0-13.2 10.8-24 24-24h144c13.2 0 24 10.8 24 24v220z m160-279.6z" fill="#D2A76A" p-id="13640"></path><path d="M452 600m-20 0a20 20 0 1 0 40 0 20 20 0 1 0-40 0Z" fill="#D2A76A" p-id="13641"></path><path d="M452 784m-20 0a20 20 0 1 0 40 0 20 20 0 1 0-40 0Z" fill="#D2A76A" p-id="13642"></path><path d="M564 600m-20 0a20 20 0 1 0 40 0 20 20 0 1 0-40 0Z" fill="#D2A76A" p-id="13643"></path><path d="M564 784m-20 0a20 20 0 1 0 40 0 20 20 0 1 0-40 0Z" fill="#D2A76A" p-id="13644"></path><path d="M452 580h112v40h-112z" fill="#D2A76A" p-id="13645"></path><path d="M432 600h40v184h-40zM544 600h40v184h-40z" fill="#D2A76A" p-id="13646"></path><path d="M423.2 824h170.4M423.2 804h170.4v40h-170.4z" fill="#D2A76A" p-id="13647"></path></svg>